<svg width="14" height="14" viewBox="0 0 14 14" fill="none" xmlns="http://www.w3.org/2000/svg">
<path d="M13.317 5.35034L11.0543 3.08758C10.9442 2.98132 10.7969 2.92253 10.6439 2.92386C10.491 2.92519 10.3447 2.98653 10.2365 3.09469C10.1284 3.20284 10.067 3.34915 10.0657 3.5021C10.0644 3.65505 10.1232 3.8024 10.2294 3.91242L12.4922 6.17517C12.5594 6.24373 12.6182 6.32011 12.6672 6.40267C12.6584 6.40267 12.6514 6.398 12.6427 6.398L3.4937 6.41667C3.33899 6.41667 3.19062 6.47813 3.08122 6.58752C2.97183 6.69692 2.91037 6.84529 2.91037 7C2.91037 7.15471 2.97183 7.30309 3.08122 7.41248C3.19062 7.52188 3.33899 7.58334 3.4937 7.58334L12.6392 7.56467C12.6555 7.56467 12.6689 7.5565 12.6847 7.55534C12.6329 7.65401 12.5673 7.74477 12.4898 7.82484L10.2271 10.0876C10.1714 10.1414 10.1269 10.2058 10.0964 10.2769C10.0658 10.3481 10.0497 10.4247 10.049 10.5021C10.0484 10.5796 10.0631 10.6564 10.0925 10.7281C10.1218 10.7998 10.1651 10.8649 10.2199 10.9197C10.2746 10.9744 10.3398 11.0177 10.4115 11.0471C10.4831 11.0764 10.56 11.0912 10.6374 11.0905C10.7149 11.0898 10.7914 11.0737 10.8626 11.0431C10.9338 11.0126 10.9981 10.9681 11.0519 10.9124L13.3147 8.64967C13.7521 8.21211 13.9978 7.61872 13.9978 7C13.9978 6.38129 13.7521 5.7879 13.3147 5.35034H13.317Z" fill="#AB5429"/>
<path d="M4.08345 12.8333H2.91678C2.45266 12.8333 2.00754 12.649 1.67935 12.3208C1.35116 11.9926 1.16679 11.5475 1.16679 11.0833V2.91667C1.16679 2.45254 1.35116 2.00742 1.67935 1.67923C2.00754 1.35104 2.45266 1.16667 2.91678 1.16667H4.08345C4.23816 1.16667 4.38653 1.10521 4.49593 0.995812C4.60532 0.886416 4.66678 0.738043 4.66678 0.583333C4.66678 0.428624 4.60532 0.280251 4.49593 0.170854C4.38653 0.0614582 4.23816 0 4.08345 0H2.91678C2.14352 0.00092625 1.4022 0.308514 0.855416 0.855295C0.308636 1.40208 0.00104832 2.1434 0.00012207 2.91667V11.0833C0.00104832 11.8566 0.308636 12.5979 0.855416 13.1447C1.4022 13.6915 2.14352 13.9991 2.91678 14H4.08345C4.23816 14 4.38653 13.9385 4.49593 13.8291C4.60532 13.7198 4.66678 13.5714 4.66678 13.4167C4.66678 13.262 4.60532 13.1136 4.49593 13.0042C4.38653 12.8948 4.23816 12.8333 4.08345 12.8333Z" fill="#AB5429"/>
</svg>
