<?xml version="1.0" encoding="iso-8859-1"?>
<!-- Generator: Adobe Illustrator 19.0.0, SVG Export Plug-In . SVG Version: 6.00 Build 0)  -->
<svg version="1.1" id="Layer_1" xmlns="http://www.w3.org/2000/svg" xmlns:xlink="http://www.w3.org/1999/xlink" x="0px" y="0px"
	 viewBox="0 0 512 512" style="enable-background:new 0 0 512 512;" xml:space="preserve">
<g>
	<g>
		<path d="M503.706,230.013h-10.817c-5.851-53.728-29.947-104.087-68.381-142.522c-23.295-23.295-50.978-41.316-81.129-53.21
			h118.012c3.47,10.273,13.193,17.693,24.622,17.693c14.329,0,25.987-11.658,25.987-25.987C512,11.658,500.342,0,486.013,0
			c-11.43,0-21.152,7.42-24.622,17.693H281.987v-9.4c0-4.58-3.713-8.294-8.294-8.294h-35.387c-4.58,0-8.294,3.713-8.294,8.294v9.4
			H50.609C47.139,7.42,37.417,0,25.987,0C11.658,0,0,11.658,0,25.987c0,14.329,11.658,25.987,25.987,25.987
			c11.43,0,21.152-7.42,24.622-17.693h118.013c-30.153,11.894-57.834,29.915-81.13,53.212
			c-38.435,38.434-62.53,88.793-68.381,142.521H8.294c-4.58,0-8.294,3.713-8.294,8.294v35.387c0,4.58,3.713,8.294,8.294,8.294H43.68
			c4.58,0,8.294-3.713,8.294-8.294v-35.387c0-4.58-3.713-8.294-8.294-8.294h-7.882c5.779-49.305,28.091-95.46,63.424-130.792
			c35.331-35.331,81.487-57.644,130.791-63.423v7.882c0,3.236,1.858,6.032,4.562,7.399l-109.95,236.815
			c-1.295,2.789-0.94,6.065,0.921,8.513c0.563,0.741,54.672,72.695,59.892,147.406c-10.096,3.568-17.351,13.204-17.351,24.506
			v17.693c0,14.329,11.658,25.987,25.987,25.987h123.853c14.329,0,25.987-11.658,25.987-25.987V468.32
			c0-11.303-7.255-20.937-17.35-24.505c5.221-74.595,59.33-146.668,59.892-147.406c1.861-2.447,2.216-5.724,0.921-8.513
			L277.425,51.079c2.704-1.367,4.562-4.163,4.562-7.399v-7.882c49.305,5.779,95.46,28.091,130.792,63.424
			c35.332,35.332,57.644,81.488,63.423,130.792h-7.882c-4.58,0-8.294,3.713-8.294,8.294v35.387c0,4.58,3.713,8.294,8.294,8.294
			h35.387c4.58,0,8.294-3.713,8.294-8.294v-35.387C512,233.726,508.287,230.013,503.706,230.013z M486.013,16.587
			c5.183,0,9.4,4.217,9.4,9.4c0,5.183-4.217,9.4-9.4,9.4s-9.4-4.217-9.4-9.4C476.613,20.804,480.83,16.587,486.013,16.587z
			 M25.987,35.387c-5.183,0-9.4-4.217-9.4-9.4c0-5.183,4.217-9.4,9.4-9.4c5.183,0,9.4,4.217,9.4,9.4
			C35.387,31.17,31.17,35.387,25.987,35.387z M35.387,265.4H16.587V246.6H26.61c0.019,0,0.038,0.002,0.056,0.002
			c0.016,0,0.03-0.002,0.045-0.002h8.675V265.4z M246.6,16.587H265.4v18.799H246.6V16.587z M327.326,468.32v17.693
			c0,5.183-4.216,9.4-9.4,9.4H194.073c-5.183,0-9.4-4.217-9.4-9.4V468.32c0-5.183,4.216-9.4,9.4-9.4h123.853
			C323.11,458.92,327.326,463.137,327.326,468.32z M370.271,290.443c-11.983,16.831-55.262,82.018-60.229,151.889H201.958
			c-4.967-69.871-48.246-135.058-60.229-151.889L247.706,62.184v195.374c-15.215,3.731-26.54,17.479-26.54,33.828
			c0,19.207,15.626,34.834,34.834,34.834s34.834-15.627,34.834-34.834c0-16.35-11.325-30.096-26.54-33.828V62.184L370.271,290.443z
			 M256,273.14c10.061,0,18.246,8.185,18.246,18.246c0,10.061-8.185,18.246-18.246,18.246s-18.246-8.185-18.246-18.246
			S245.939,273.14,256,273.14z M495.413,265.4h-18.799V246.6h8.676c0.016,0,0.03,0.002,0.045,0.002c0.019,0,0.038-0.002,0.056-0.002
			h10.021V265.4z"/>
	</g>
</g>
<g>
</g>
<g>
</g>
<g>
</g>
<g>
</g>
<g>
</g>
<g>
</g>
<g>
</g>
<g>
</g>
<g>
</g>
<g>
</g>
<g>
</g>
<g>
</g>
<g>
</g>
<g>
</g>
<g>
</g>
</svg>
