<svg width="254" height="262" viewBox="0 0 254 262" fill="none" xmlns="http://www.w3.org/2000/svg">
<path d="M158.002 192.2C166.278 192.204 174.502 190.832 182.37 188.133L182.788 187.99L182.697 187.557C179.124 170.673 170.609 155.387 158.344 143.849L158.002 143.527L157.659 143.849C145.395 155.387 136.88 170.673 133.306 187.557L133.215 187.99L133.633 188.133C141.501 190.832 149.726 192.204 158.002 192.2ZM158.002 192.2C158.002 192.2 158.001 192.2 158.001 192.2L158.002 191.7L158.002 192.2C158.002 192.2 158.002 192.2 158.002 192.2ZM179.888 281.706L180.369 281.185C199.116 260.888 209.599 233.698 209.585 205.393V205.393H210.085V204.393C233.213 190.301 250.334 167.436 257.937 140.489L179.888 281.706ZM179.888 281.706L180.539 281.984M179.888 281.706L180.539 281.984M180.539 281.984C189.922 285.997 199.956 288.056 210.085 288.049M180.539 281.984L210.085 288.049M209.585 204.112L209.825 203.966L209.585 204.112ZM209.585 204.112V204.393M209.585 204.112V204.393M209.585 204.393V204.395M209.585 204.393V204.395M210.085 288.049C234.371 288.034 257.279 276.222 272.159 256.061L210.085 288.049ZM209.585 204.395V204.397M209.585 204.395V204.397M209.585 204.397V204.399M209.585 204.397V204.399M209.585 204.399V204.401M209.585 204.399V204.401M209.585 204.401V204.403M209.585 204.401V204.403M209.585 204.403V204.405M209.585 204.403V204.405M209.585 204.405V204.406M209.585 204.405V204.406M209.585 204.406V204.408M209.585 204.406V204.408M209.585 204.408V204.41M209.585 204.408V204.41M209.585 204.41V204.412M209.585 204.41V204.412M209.585 204.412V204.414M209.585 204.412V204.414M209.585 204.414V204.416M209.585 204.414V204.416M209.585 204.416V204.418M209.585 204.416V204.418M209.585 204.418V204.42M209.585 204.418V204.42M209.585 204.42V204.422M209.585 204.42V204.422M209.585 204.422V204.424M209.585 204.422V204.424M209.585 204.424V204.426M209.585 204.424V204.426M209.585 204.426V204.428M209.585 204.426V204.428M209.585 204.428V204.43M209.585 204.428V204.43M209.585 204.43V204.432M209.585 204.43V204.432M209.585 204.432V204.433M209.585 204.432V204.433M209.585 204.433V204.435M209.585 204.433V204.435M209.585 204.435V204.437M209.585 204.435V204.437M209.585 204.437V204.439M209.585 204.437V204.439M209.585 204.439V204.441M209.585 204.439V204.441M209.585 204.441V204.443M209.585 204.441V204.443M209.585 204.443V204.445M209.585 204.443V204.445M209.585 204.445V204.447M209.585 204.445V204.447M209.585 204.447V204.449M209.585 204.447V204.449M209.585 204.449V204.451M209.585 204.449V204.451M209.585 204.451V204.453M209.585 204.451V204.453M209.585 204.453V204.455M209.585 204.453V204.455M209.585 204.455V204.457M209.585 204.455V204.457M209.585 204.457V204.459M209.585 204.457V204.459M209.585 204.459V204.46M209.585 204.459V204.46M209.585 204.46V204.462M209.585 204.46V204.462M209.585 204.462V204.464M209.585 204.462V204.464M209.585 204.464V204.466M209.585 204.464V204.466M209.585 204.466V204.468M209.585 204.466V204.468M209.585 204.468V204.47M209.585 204.468V204.47M209.585 204.47V204.472M209.585 204.47V204.472M209.585 204.472V204.474M209.585 204.472V204.474M209.585 204.474V204.476M209.585 204.474V204.476M209.585 204.476V204.478M209.585 204.476V204.478M209.585 204.478V204.48M209.585 204.478V204.48M209.585 204.48V204.482M209.585 204.48V204.482M209.585 204.482V204.484M209.585 204.482V204.484M209.585 204.484V204.486M209.585 204.484V204.486M209.585 204.486V204.487M209.585 204.486V204.487M209.585 204.487V204.489M209.585 204.487V204.489M209.585 204.489V204.491M209.585 204.489V204.491M209.585 204.491V204.493M209.585 204.491V204.493M209.585 204.493V204.495M209.585 204.493V204.495M209.585 204.495V204.497M209.585 204.495V204.497M209.585 204.497V204.499M209.585 204.497V204.499M209.585 204.499V204.501M209.585 204.499V204.501M209.585 204.501V204.503M209.585 204.501V204.503M209.585 204.503V204.505M209.585 204.503V204.505M209.585 204.505V204.507M209.585 204.505V204.507M209.585 204.507V204.509M209.585 204.507V204.509M209.585 204.509V204.511M209.585 204.509V204.511M209.585 204.511V204.513M209.585 204.511V204.513M209.585 204.513V204.514M209.585 204.513V204.514M209.585 204.514V204.516M209.585 204.514V204.516M209.585 204.516V204.518M209.585 204.516V204.518M209.585 204.518V204.52M209.585 204.518V204.52M209.585 204.52V204.522M209.585 204.52V204.522M209.585 204.522V204.524M209.585 204.522V204.524M209.585 204.524V204.526M209.585 204.524V204.526M209.585 204.526V204.528M209.585 204.526V204.528M209.585 204.528V204.53M209.585 204.528V204.53M209.585 204.53V204.532M209.585 204.53V204.532M209.585 204.532V204.534M209.585 204.532V204.534M209.585 204.534V204.536M209.585 204.534V204.536M209.585 204.536V204.538M209.585 204.536V204.538M209.585 204.538V204.54M209.585 204.538V204.54M209.585 204.54V204.541M209.585 204.54V204.541M209.585 204.541V204.543M209.585 204.541V204.543M209.585 204.543V204.545M209.585 204.543V204.545M209.585 204.545V204.547M209.585 204.545V204.547M209.585 204.547V204.549M209.585 204.547V204.549M209.585 204.549V204.551M209.585 204.549V204.551M209.585 204.551V204.553M209.585 204.551V204.553M209.585 204.553V204.555M209.585 204.553V204.555M209.585 204.555V204.557M209.585 204.555V204.557M209.585 204.557V204.559M209.585 204.557V204.559M209.585 204.559V204.561M209.585 204.559V204.561M209.585 204.561V204.563M209.585 204.561V204.563M209.585 204.563V204.565M209.585 204.563V204.565M209.585 204.565V204.567M209.585 204.565V204.567M209.585 204.567V204.568M209.585 204.567V204.568M209.585 204.568V204.57M209.585 204.568V204.57M209.585 204.57V204.572M209.585 204.57V204.572M209.585 204.572V204.574M209.585 204.572V204.574M209.585 204.574V204.576M209.585 204.574V204.576M209.585 204.576V204.578M209.585 204.576V204.578M209.585 204.578V204.58M209.585 204.578V204.58M209.585 204.58V204.582M209.585 204.58V204.582M209.585 204.582V204.584M209.585 204.582V204.584M209.585 204.584V204.586M209.585 204.584V204.586M209.585 204.586V204.588M209.585 204.586V204.588M209.585 204.588V204.59M209.585 204.588V204.59M209.585 204.59V204.592M209.585 204.59V204.592M209.585 204.592V204.594M209.585 204.592V204.594M209.585 204.594V204.596M209.585 204.594V204.596M209.585 204.596V204.597M209.585 204.596V204.597M209.585 204.597V204.599M209.585 204.597V204.599M209.585 204.599V204.601M209.585 204.599V204.601M209.585 204.601V204.603M209.585 204.601V204.603M209.585 204.603V204.605M209.585 204.603V204.605M209.585 204.605V204.607M209.585 204.605V204.607M209.585 204.607V204.609M209.585 204.607V204.609M209.585 204.609V204.611M209.585 204.609V204.611M209.585 204.611V204.613M209.585 204.611V204.613M209.585 204.613V204.615M209.585 204.613V204.615M209.585 204.615V204.617M209.585 204.615V204.617M209.585 204.617V204.619M209.585 204.617V204.619M209.585 204.619V204.621M209.585 204.619V204.621M209.585 204.621V204.623M209.585 204.621V204.623M209.585 204.623V204.624M209.585 204.623V204.624M209.585 204.624V204.626M209.585 204.624V204.626M209.585 204.626V204.628M209.585 204.626V204.628M209.585 204.628V204.63M209.585 204.628V204.63M209.585 204.63V204.632M209.585 204.63V204.632M209.585 204.632V204.634M209.585 204.632V204.634M209.585 204.634V204.636M209.585 204.634V204.636M209.585 204.636V204.638M209.585 204.636V204.638M209.585 204.638V204.64M209.585 204.638V204.64M209.585 204.64V204.642M209.585 204.64V204.642M209.585 204.642V204.644M209.585 204.642V204.644M209.585 204.644V204.646M209.585 204.644V204.646M209.585 204.646V204.648M209.585 204.646V204.648M209.585 204.648V204.65M209.585 204.648V204.65M209.585 204.65V204.652M209.585 204.65V204.652M209.585 204.652V204.653M209.585 204.652V204.653M209.585 204.653V204.655M209.585 204.653V204.655M209.585 204.655V204.657M209.585 204.655V204.657M209.585 204.657V204.659M209.585 204.657V204.659M209.585 204.659V204.661M209.585 204.659V204.661M209.585 204.661V204.663M209.585 204.661V204.663M209.585 204.663V204.665M209.585 204.663V204.665M209.585 204.665V204.667M209.585 204.665V204.667M209.585 204.667V204.669M209.585 204.667V204.669M209.585 204.669V204.671M209.585 204.669V204.671M209.585 204.671V204.673M209.585 204.671V204.673M209.585 204.673V204.675M209.585 204.673V204.675M209.585 204.675V204.677M209.585 204.675V204.677M209.585 204.677V204.679M209.585 204.677V204.679M209.585 204.679V204.681M209.585 204.679V204.681M209.585 204.681V204.682M209.585 204.681V204.682M209.585 204.682V204.684M209.585 204.682V204.684M209.585 204.684V204.686M209.585 204.684V204.686M209.585 204.686V204.688M209.585 204.686V204.688M209.585 204.688V204.69M209.585 204.688V204.69M209.585 204.69V204.692M209.585 204.69V204.692M209.585 204.692V204.694M209.585 204.692V204.694M209.585 204.694V204.696M209.585 204.694V204.696M209.585 204.696V204.698M209.585 204.696V204.698M209.585 204.698V204.7M209.585 204.698V204.7M209.585 204.7V204.702M209.585 204.7V204.702M209.585 204.702V204.704M209.585 204.702V204.704M209.585 204.704V204.706M209.585 204.704V204.706M209.585 204.706V204.708M209.585 204.706V204.708M209.585 204.708V204.71M209.585 204.708V204.71M209.585 204.71V204.711M209.585 204.71V204.711M209.585 204.711V204.713M209.585 204.711V204.713M209.585 204.713V204.715M209.585 204.713V204.715M209.585 204.715V204.717M209.585 204.715V204.717M209.585 204.717V204.719M209.585 204.717V204.719M209.585 204.719V204.721M209.585 204.719V204.721M209.585 204.721V204.723M209.585 204.721V204.723M209.585 204.723V204.725M209.585 204.723V204.725M209.585 204.725V204.727M209.585 204.725V204.727M209.585 204.727V204.729M209.585 204.727V204.729M209.585 204.729V204.731M209.585 204.729V204.731M209.585 204.731V204.733M209.585 204.731V204.733M209.585 204.733V204.735M209.585 204.733V204.735M209.585 204.735V204.737M209.585 204.735V204.737M209.585 204.737V204.739M209.585 204.737V204.739M209.585 204.739V204.74M209.585 204.739V204.74M209.585 204.74V204.742M209.585 204.74V204.742M209.585 204.742V204.744M209.585 204.742V204.744M209.585 204.744V204.746M209.585 204.744V204.746M209.585 204.746V204.748M209.585 204.746V204.748M209.585 204.748V204.75M209.585 204.748V204.75M209.585 204.75V204.752M209.585 204.75V204.752M209.585 204.752V204.754M209.585 204.752V204.754M209.585 204.754V204.756M209.585 204.754V204.756M209.585 204.756V204.758M209.585 204.756V204.758M209.585 204.758V204.76M209.585 204.758V204.76M209.585 204.76V204.762M209.585 204.76V204.762M209.585 204.762V204.764M209.585 204.762V204.764M209.585 204.764V204.766M209.585 204.764V204.766M209.585 204.766V204.768M209.585 204.766V204.768M209.585 204.768V204.77M209.585 204.768V204.77M209.585 204.77V204.771M209.585 204.77V204.771M209.585 204.771V204.773M209.585 204.771V204.773M209.585 204.773V204.775M209.585 204.773V204.775M209.585 204.775V204.777M209.585 204.775V204.777M209.585 204.777V204.779M209.585 204.777V204.779M209.585 204.779V204.781M209.585 204.779V204.781M209.585 204.781V204.783M209.585 204.781V204.783M209.585 204.783V204.785M209.585 204.783V204.785M209.585 204.785V204.787M209.585 204.785V204.787M209.585 204.787V204.789M209.585 204.787V204.789M209.585 204.789V204.791M209.585 204.789V204.791M209.585 204.791V204.793M209.585 204.791V204.793M209.585 204.793V204.795M209.585 204.793V204.795M209.585 204.795V204.797M209.585 204.795V204.797M209.585 204.797V204.799M209.585 204.797V204.799M209.585 204.799V204.801M209.585 204.799V204.801M209.585 204.801V204.803M209.585 204.801V204.803M209.585 204.803V204.804M209.585 204.803V204.804M209.585 204.804V204.806M209.585 204.804V204.806M209.585 204.806V204.808M209.585 204.806V204.808M209.585 204.808V204.81M209.585 204.808V204.81M209.585 204.81V204.812M209.585 204.81V204.812M209.585 204.812V204.814M209.585 204.812V204.814M209.585 204.814V204.816M209.585 204.814V204.816M209.585 204.816V204.818M209.585 204.816V204.818M209.585 204.818V204.82M209.585 204.818V204.82M209.585 204.82V204.822M209.585 204.82V204.822M209.585 204.822V204.824M209.585 204.822V204.824M209.585 204.824V204.826M209.585 204.824V204.826M209.585 204.826V204.828M209.585 204.826V204.828M209.585 204.828V204.83M209.585 204.828V204.83M209.585 204.83V204.832M209.585 204.83V204.832M209.585 204.832V204.834M209.585 204.832V204.834M209.585 204.834V204.835M209.585 204.834V204.835M209.585 204.835V204.837M209.585 204.835V204.837M209.585 204.837V204.839M209.585 204.837V204.839M209.585 204.839V204.841M209.585 204.839V204.841M209.585 204.841V204.843M209.585 204.841V204.843M209.585 204.843V204.845M209.585 204.843V204.845M209.585 204.845V204.847M209.585 204.845V204.847M209.585 204.847V204.849M209.585 204.847V204.849M209.585 204.849V204.851M209.585 204.849V204.851M209.585 204.851V204.853M209.585 204.851V204.853M209.585 204.853V204.855M209.585 204.853V204.855M209.585 204.855V204.857M209.585 204.855V204.857M209.585 204.857V204.859M209.585 204.857V204.859M209.585 204.859V204.861M209.585 204.859V204.861M209.585 204.861V204.863M209.585 204.861V204.863M209.585 204.863V204.865M209.585 204.863V204.865M209.585 204.865V204.867M209.585 204.865V204.867M209.585 204.867V204.869M209.585 204.867V204.869M209.585 204.869V204.87M209.585 204.869V204.87M209.585 204.87V204.872M209.585 204.87V204.872M209.585 204.872V204.874M209.585 204.872V204.874M209.585 204.874V204.876V204.874ZM261.669 110.542V110.83L261.918 110.975C263.079 111.649 264.229 112.348 265.366 113.069L265.634 112.647L265.366 113.069C314.389 144.176 330.166 211.206 300.573 262.782C270.987 314.344 207.277 330.903 158.27 299.807L158.002 299.637L157.734 299.807C156.598 300.528 155.448 301.226 154.286 301.901C104.181 330.994 41.1218 311.876 13.4395 259.154C-14.2498 206.42 3.96531 140.078 54.0858 110.975L54.3347 110.83V110.542V110.54V110.538V110.537V110.535V110.533V110.531V110.529V110.527V110.525V110.523V110.521V110.519V110.517V110.515V110.513V110.511V110.51V110.508V110.506V110.504V110.502V110.5V110.498V110.496V110.494V110.492V110.49V110.488V110.486V110.484V110.483V110.481V110.479V110.477V110.475V110.473V110.471V110.469V110.467V110.465V110.463V110.461V110.459V110.457V110.456V110.454V110.452V110.45V110.448V110.446V110.444V110.442V110.44V110.438V110.436V110.434V110.432V110.43V110.429V110.427V110.425V110.423V110.421V110.419V110.417V110.415V110.413V110.411V110.409V110.407V110.405V110.403V110.402V110.4V110.398V110.396V110.394V110.392V110.39V110.388V110.386V110.384V110.382V110.38V110.378V110.376V110.375V110.373V110.371V110.369V110.367V110.365V110.363V110.361V110.359V110.357V110.355V110.353V110.351V110.349V110.347V110.346V110.344V110.342V110.34V110.338V110.336V110.334V110.332V110.33V110.328V110.326V110.324V110.322V110.32V110.319V110.317V110.315V110.313V110.311V110.309V110.307V110.305V110.303V110.301V110.299V110.297V110.295V110.293V110.291V110.29V110.288V110.286V110.284V110.282V110.28V110.278V110.276V110.274V110.272V110.27V110.268V110.266V110.264V110.262V110.261V110.259V110.257V110.255V110.253V110.251V110.249V110.247V110.245V110.243V110.241V110.239V110.237V110.235V110.233V110.232V110.23V110.228V110.226V110.224V110.222V110.22V110.218V110.216V110.214V110.212V110.21V110.208V110.206V110.204V110.203V110.201V110.199V110.197V110.195V110.193V110.191V110.189V110.187V110.185V110.183V110.181V110.179V110.177V110.175V110.173V110.172V110.17V110.168V110.166V110.164V110.162V110.16V110.158V110.156V110.154V110.152V110.15V110.148V110.146V110.144V110.142V110.141V110.139V110.137V110.135V110.133V110.131V110.129V110.127V110.125V110.123V110.121V110.119V110.117V110.115V110.113V110.111V110.109V110.108V110.106V110.104V110.102V110.1V110.098V110.096V110.094V110.092V110.09V110.088V110.086V110.084V110.082V110.08V110.078V110.076V110.075V110.073V110.071V110.069V110.067V110.065V110.063V110.061V110.059V110.057V110.055V110.053V110.051V110.049V110.047V110.045V110.043V110.041V110.04V110.038V110.036V110.034V110.032V110.03V110.028V110.026V110.024V110.022V110.02V110.018V110.016V110.014V110.012V110.01V110.008V110.006V110.004V110.002V110.001V109.999V109.997V109.995V109.993V109.991V109.989V109.987V109.985V109.983V109.981V109.979V109.977V109.975V109.973V109.971V109.969V109.967V109.965V109.963V109.962V109.96V109.958V109.956V109.954V109.952V109.95V109.948V109.946V109.944V109.942V109.94V109.938V109.936V109.934V109.932V109.93V109.928V109.926V109.924V109.922V109.92V109.919V109.917V109.915V109.913V109.911V109.909V109.907V109.905V109.903V109.901V109.899V109.897V109.895V109.893V109.891V109.889V109.887V109.885V109.883V109.881V109.879V109.877V109.875V109.873V109.871V109.87V109.868V109.866V109.864V109.862V109.86V109.858V109.856V109.854V109.852V109.85V109.848V109.846V109.844V109.842V109.84V109.838V109.836V109.834V109.832V109.83V109.828V109.826V109.824V109.822V109.82V109.818V109.816V109.815V109.813V109.811V109.809V109.807V109.805V109.803V109.801V109.799V109.797V109.795V109.793V109.791V109.789V109.787V109.785V109.783V109.781V109.779V109.777V109.775V109.773V109.771V109.769V109.767V109.765V109.763V109.761V109.759V109.757V109.755V109.753V109.751V109.749V109.747V109.745V109.744V109.742V109.74V109.738V109.736V109.734V109.732V109.73V109.728V109.726V109.724V109.722V109.72V109.718V109.716V109.714V109.712V109.71V109.708V109.706V109.704V109.702V109.7V109.698V109.696V109.694V109.692V109.69V109.688V109.686V109.684V109.682V109.68V109.678V109.676V109.674V109.672V109.67V109.668V109.666V109.664V109.662V109.66V109.658V109.656V109.654V109.652V109.65V109.648V109.646V109.644V109.642V109.64V109.638V109.636V109.634V109.632V109.63V109.628V109.626V109.624V109.622V109.62V109.618V109.617V109.615V109.613V109.611V109.609V109.607V109.605V109.603V109.601V109.599V109.597V109.595V109.593V109.591V109.589V109.587V109.585V109.583V109.581V109.579V109.577V109.575V109.573V109.571V109.569V109.567V109.565V109.563V109.561V109.559V109.557V109.555V109.553V109.551V109.549V109.547V109.545V109.543C54.3347 49.2961 100.772 0.5 158.002 0.5C215.232 0.5 261.669 49.2961 261.669 109.543V109.545V109.547V109.549V109.551V109.553V109.555V109.557V109.559V109.561V109.563V109.565V109.567V109.569V109.571V109.573V109.575V109.577V109.579V109.581V109.583V109.585V109.587V109.589V109.591V109.593V109.595V109.597V109.599V109.601V109.603V109.605V109.607V109.609V109.611V109.613V109.615V109.617V109.619V109.621V109.623V109.625V109.627V109.629V109.631V109.633V109.635V109.637V109.639V109.641V109.643V109.645V109.647V109.649V109.651V109.653V109.655V109.657V109.658V109.66V109.662V109.664V109.666V109.668V109.67V109.672V109.674V109.676V109.678V109.68V109.682V109.684V109.686V109.688V109.69V109.692V109.694V109.696V109.698V109.7V109.702V109.704V109.706V109.708V109.71V109.712V109.714V109.716V109.718V109.72V109.722V109.724V109.726V109.728V109.73V109.732V109.734V109.736V109.738V109.74V109.742V109.744V109.746V109.748V109.75V109.752V109.754V109.756V109.758V109.76V109.762V109.764V109.766V109.768V109.77V109.772V109.773V109.775V109.777V109.779V109.781V109.783V109.785V109.787V109.789V109.791V109.793V109.795V109.797V109.799V109.801V109.803V109.805V109.807V109.809V109.811V109.813V109.815V109.817V109.819V109.821V109.823V109.825V109.827V109.829V109.831V109.833V109.835V109.837V109.839V109.84V109.842V109.844V109.846V109.848V109.85V109.852V109.854V109.856V109.858V109.86V109.862V109.864V109.866V109.868V109.87V109.872V109.874V109.876V109.878V109.88V109.882V109.884V109.886V109.888V109.89V109.892V109.894V109.895V109.897V109.899V109.901V109.903V109.905V109.907V109.909V109.911V109.913V109.915V109.917V109.919V109.921V109.923V109.925V109.927V109.929V109.931V109.933V109.935V109.937V109.939V109.94V109.942V109.944V109.946V109.948V109.95V109.952V109.954V109.956V109.958V109.96V109.962V109.964V109.966V109.968V109.97V109.972V109.974V109.976V109.978V109.98V109.982V109.983V109.985V109.987V109.989V109.991V109.993V109.995V109.997V109.999V110.001V110.003V110.005V110.007V110.009V110.011V110.013V110.015V110.017V110.019V110.021V110.022V110.024V110.026V110.028V110.03V110.032V110.034V110.036V110.038V110.04V110.042V110.044V110.046V110.048V110.05V110.052V110.054V110.056V110.058V110.059V110.061V110.063V110.065V110.067V110.069V110.071V110.073V110.075V110.077V110.079V110.081V110.083V110.085V110.087V110.089V110.091V110.092V110.094V110.096V110.098V110.1V110.102V110.104V110.106V110.108V110.11V110.112V110.114V110.116V110.118V110.12V110.122V110.124V110.125V110.127V110.129V110.131V110.133V110.135V110.137V110.139V110.141V110.143V110.145V110.147V110.149V110.151V110.153V110.155V110.156V110.158V110.16V110.162V110.164V110.166V110.168V110.17V110.172V110.174V110.176V110.178V110.18V110.182V110.184V110.186V110.187V110.189V110.191V110.193V110.195V110.197V110.199V110.201V110.203V110.205V110.207V110.209V110.211V110.213V110.215V110.216V110.218V110.22V110.222V110.224V110.226V110.228V110.23V110.232V110.234V110.236V110.238V110.24V110.242V110.244V110.245V110.247V110.249V110.251V110.253V110.255V110.257V110.259V110.261V110.263V110.265V110.267V110.269V110.271V110.273V110.274V110.276V110.278V110.28V110.282V110.284V110.286V110.288V110.29V110.292V110.294V110.296V110.298V110.3V110.301V110.303V110.305V110.307V110.309V110.311V110.313V110.315V110.317V110.319V110.321V110.323V110.325V110.327V110.329V110.33V110.332V110.334V110.336V110.338V110.34V110.342V110.344V110.346V110.348V110.35V110.352V110.354V110.355V110.357V110.359V110.361V110.363V110.365V110.367V110.369V110.371V110.373V110.375V110.377V110.379V110.381V110.382V110.384V110.386V110.388V110.39V110.392V110.394V110.396V110.398V110.4V110.402V110.404V110.406V110.408V110.409V110.411V110.413V110.415V110.417V110.419V110.421V110.423V110.425V110.427V110.429V110.431V110.433V110.434V110.436V110.438V110.44V110.442V110.444V110.446V110.448V110.45V110.452V110.454V110.456V110.458V110.46V110.461V110.463V110.465V110.467V110.469V110.471V110.473V110.475V110.477V110.479V110.481V110.483V110.485V110.486V110.488V110.49V110.492V110.494V110.496V110.498V110.5V110.502V110.504V110.506V110.508V110.51V110.512V110.513V110.515V110.517V110.519V110.521V110.523V110.525V110.527V110.529V110.531V110.533V110.535V110.537V110.538V110.54V110.542ZM157.659 267.005L158.502 267.796V266.788C172.474 253.566 181.473 235.515 183.863 215.915L183.952 215.183L183.239 215.37C166.652 219.739 149.298 219.739 132.712 215.37L132 215.183L132.089 215.914C134.487 235.621 143.563 253.762 157.659 267.005ZM109.847 174.834L110.437 175.315L110.644 174.582C115.41 157.709 123.985 142.3 135.635 129.668L136.115 129.147L135.464 128.869C118.279 121.54 99.1839 120.832 81.5508 126.871L81.1315 127.014L81.2237 127.448C85.223 146.262 95.3448 163.023 109.847 174.834ZM180.54 128.8L179.888 129.078L180.368 129.599C192.027 142.251 200.602 157.684 205.359 174.582L205.565 175.316L206.156 174.834C220.671 163.006 230.794 146.218 234.78 127.378L234.871 126.945L234.453 126.802C216.819 120.763 197.724 121.471 180.54 128.8ZM158.002 26.886L158.001 26.886C118.422 26.9396 85.0575 57.8612 80.0052 99.0893L79.9154 99.822L80.6292 99.6335C106.757 92.7338 134.415 96.803 157.742 110.983L158.002 111.141L158.261 110.983C181.588 96.8036 209.246 92.7338 235.374 99.6335L236.088 99.822L235.998 99.0893C230.946 57.8606 197.581 26.9396 158.002 26.886ZM58.5608 140.352L58.3542 139.62L57.764 140.1C38.5425 155.74 27.2958 179.85 27.2933 205.392C27.2939 216.031 29.2485 226.568 33.0489 236.428C49.3532 278.726 95.1995 299.147 135.463 281.984L136.116 281.706L135.635 281.185C116.888 260.888 106.404 233.697 106.418 205.392V205.392V205.39V205.388V205.386V205.384V205.382V205.38V205.378V205.376V205.374V205.372V205.37V205.368V205.366V205.364V205.362V205.36V205.358V205.356V205.354V205.352V205.35V205.348V205.346V205.344V205.342V205.34V205.338V205.336V205.334V205.332V205.33V205.328V205.326V205.324V205.322V205.32V205.318V205.316V205.314V205.312V205.31V205.308V205.306V205.304V205.302V205.3V205.298V205.296V205.294V205.292V205.29V205.288V205.286V205.284V205.282V205.28V205.278V205.276V205.274V205.272V205.27V205.268V205.266V205.264V205.262V205.26V205.258V205.256V205.254V205.252V205.25V205.248V205.246V205.244V205.242V205.24V205.238V205.236V205.234V205.232V205.23V205.228V205.226V205.224V205.222V205.22V205.219V205.217V205.215V205.213V205.211V205.209V205.207V205.205V205.203V205.201V205.199V205.197V205.195V205.193V205.191V205.189V205.187V205.185V205.183V205.181V205.179V205.177V205.175V205.173V205.171V205.169V205.167V205.165V205.163V205.161V205.159V205.157V205.155V205.153V205.151V205.149V205.147V205.145V205.143V205.141V205.139V205.137V205.135V205.134V205.132V205.13V205.128V205.126V205.124V205.122V205.12V205.118V205.116V205.114V205.112V205.11V205.108V205.106V205.104V205.102V205.1V205.098V205.096V205.094V205.092V205.09V205.088V205.086V205.084V205.082V205.08V205.078V205.076V205.074V205.073V205.071V205.069V205.067V205.065V205.063V205.061V205.059V205.057V205.055V205.053V205.051V205.049V205.047V205.045V205.043V205.041V205.039V205.037V205.035V205.033V205.031V205.029V205.027V205.025V205.023V205.022V205.02V205.018V205.016V205.014V205.012V205.01V205.008V205.006V205.004V205.002V205V204.998V204.996V204.994V204.992V204.99V204.988V204.986V204.984V204.982V204.98V204.978V204.977V204.975V204.973V204.971V204.969V204.967V204.965V204.963V204.961V204.959V204.957V204.955V204.953V204.951V204.949V204.947V204.945V204.943V204.941V204.939V204.937V204.936V204.934V204.932V204.93V204.928V204.926V204.924V204.922V204.92V204.918V204.916V204.914V204.912V204.91V204.908V204.906V204.904V204.902V204.9V204.899V204.897V204.895V204.893V204.891V204.889V204.887V204.885V204.883V204.881V204.879V204.877V204.875V204.873V204.871V204.869V204.867V204.865V204.863V204.862V204.86V204.858V204.856V204.854V204.852V204.85V204.848V204.846V204.844V204.842V204.84V204.838V204.836V204.834V204.832V204.83V204.829V204.827V204.825V204.823V204.821V204.819V204.817V204.815V204.813V204.811V204.809V204.807V204.805V204.803V204.801V204.799V204.798V204.796V204.794V204.792V204.79V204.788V204.786V204.784V204.782V204.78V204.778V204.776V204.774V204.772V204.77V204.768V204.766V204.765V204.763V204.761V204.759V204.757V204.755V204.753V204.751V204.749V204.747V204.745V204.743V204.741V204.739V204.737V204.736V204.734V204.732V204.73V204.728V204.726V204.724V204.722V204.72V204.718V204.716V204.714V204.712V204.71V204.708V204.707V204.705V204.703V204.701V204.699V204.697V204.695V204.693V204.691V204.689V204.687V204.685V204.683V204.681V204.679V204.678V204.676V204.674V204.672V204.67V204.668V204.666V204.664V204.662V204.66V204.658V204.656V204.654V204.652V204.65V204.649V204.647V204.645V204.643V204.641V204.639V204.637V204.635V204.633V204.631V204.629V204.627V204.625V204.623V204.622V204.62V204.618V204.616V204.614V204.612V204.61V204.608V204.606V204.604V204.602V204.6V204.598V204.596V204.595V204.593V204.591V204.589V204.587V204.585V204.583V204.581V204.579V204.577V204.575V204.573V204.571V204.569V204.568V204.566V204.564V204.562V204.56V204.558V204.556V204.554V204.552V204.55V204.548V204.546V204.544V204.542V204.541V204.539V204.537V204.535V204.533V204.531V204.529V204.527V204.525V204.523V204.521V204.519V204.517V204.516V204.514V204.512V204.51V204.508V204.506V204.504V204.502V204.5V204.498V204.496V204.494V204.492V204.49V204.489V204.487V204.485V204.483V204.481V204.479V204.477V204.475V204.473V204.471V204.469V204.467V204.465V204.464V204.462V204.46V204.458V204.456V204.454V204.452V204.45V204.448V204.446V204.444V204.442V204.44V204.439V204.437V204.435V204.433V204.431V204.429V204.427V204.425V204.423V204.421V204.419V204.417V204.415V204.413V204.412V204.41V204.408V204.406V204.404V204.402V204.4V204.398V204.396V204.394V204.392V204.112L106.178 203.965C83.1676 189.939 66.1273 167.181 58.5608 140.352Z" stroke="white" stroke-opacity="0.15"/>
</svg>
