<?xml version="1.0" encoding="iso-8859-1"?>
<!-- Generator: Adobe Illustrator 19.0.0, SVG Export Plug-In . SVG Version: 6.00 Build 0)  -->
<svg version="1.1" id="Layer_1" xmlns="http://www.w3.org/2000/svg" xmlns:xlink="http://www.w3.org/1999/xlink" x="0px" y="0px"
	 viewBox="0 0 300 300" style="enable-background:new 0 0 300 300;" xml:space="preserve">
<g id="XMLID_818_">
	<path id="XMLID_819_" d="M289.391,181.848c2.133-9.755,3.268-19.881,3.268-30.273c0-77.917-63.166-141.084-141.086-141.084
		c-8.226,0-16.286,0.711-24.128,2.064C114.836,4.611,99.918,0,83.916,0C38.728,0,2.097,36.635,2.097,81.816
		c0,15.104,4.109,29.24,11.246,41.385c-1.871,9.166-2.854,18.653-2.854,28.373c0,77.917,63.165,141.084,141.084,141.084
		c8.826,0,17.459-0.817,25.834-2.367c11.518,6.19,24.688,9.709,38.678,9.709c45.189,0,81.818-36.631,81.818-81.816
		C297.903,205.127,294.83,192.797,289.391,181.848z M223.932,218.998c-6.527,9.236-16.17,16.555-28.664,21.749
		c-12.373,5.143-27.205,7.751-44.088,7.751c-20.264,0-37.253-3.564-50.513-10.598c-9.479-5.121-17.296-12.056-23.229-20.613
		c-5.993-8.645-9.033-17.223-9.033-25.494c0-5.17,1.98-9.652,5.886-13.32c3.865-3.636,8.818-5.478,14.724-5.478
		c4.848,0,9.029,1.456,12.429,4.328c3.247,2.752,6.034,6.824,8.273,12.083c2.5,5.726,5.226,10.561,8.105,14.369
		c2.767,3.663,6.748,6.742,11.832,9.145c5.115,2.422,12.01,3.649,20.491,3.649c11.663,0,21.226-2.49,28.419-7.402
		c7.025-4.797,10.441-10.555,10.441-17.604c0-5.57-1.783-9.947-5.449-13.382c-3.84-3.591-8.904-6.386-15.055-8.303
		c-6.412-1.999-15.117-4.155-25.884-6.409c-14.586-3.124-26.985-6.83-36.86-11.019c-0.038-0.015-0.077-0.031-0.115-0.048
		c-10.117-4.303-18.271-10.27-24.236-17.736c-6.059-7.582-9.129-17.094-9.129-28.275c0-10.658,3.223-20.265,9.58-28.552
		c6.309-8.229,15.523-14.624,27.385-19.012c11.709-4.33,25.637-6.524,41.396-6.524c12.6,0,23.678,1.455,32.924,4.33
		c9.299,2.896,17.139,6.807,23.299,11.619c6.205,4.848,10.82,10.035,13.719,15.422c2.928,5.441,4.412,10.856,4.412,16.094
		c0,5.041-1.947,9.622-5.787,13.615c-3.863,4.016-8.738,6.055-14.49,6.055c-5.225,0-9.314-1.275-12.152-3.789
		c-2.641-2.334-5.379-5.973-8.42-11.209c-3.518-6.684-7.775-11.953-12.66-15.666c-4.74-3.606-12.666-5.437-23.555-5.437
		c-10.113,0-18.338,2.03-24.445,6.034c-5.885,3.858-8.744,8.282-8.744,13.523c0,3.215,0.92,5.901,2.813,8.213
		c2.005,2.449,4.833,4.6,8.408,6.388c3.708,1.864,7.529,3.345,11.357,4.402c3.921,1.088,10.5,2.7,19.522,4.784
		c9.506,2.041,18.359,4.289,26.418,6.695c1.619,0.483,3.219,0.972,4.771,1.468c9.395,3.007,17.514,6.716,24.135,11.022
		c6.758,4.401,12.109,10.053,15.906,16.8c3.807,6.771,5.736,15.132,5.736,24.844C233.803,199.135,230.481,209.727,223.932,218.998z"
		/>
</g>
<g>
</g>
<g>
</g>
<g>
</g>
<g>
</g>
<g>
</g>
<g>
</g>
<g>
</g>
<g>
</g>
<g>
</g>
<g>
</g>
<g>
</g>
<g>
</g>
<g>
</g>
<g>
</g>
<g>
</g>
</svg>
